<?xml version="1.0" encoding="utf-8"?>
<!-- Generator: Adobe Illustrator 25.2.3, SVG Export Plug-In . SVG Version: 6.00 Build 0)  -->
<svg version="1.1" id="Capa_1" xmlns="http://www.w3.org/2000/svg" xmlns:xlink="http://www.w3.org/1999/xlink" x="0px" y="0px"
	 viewBox="0 0 31.9 32" style="enable-background:new 0 0 31.9 32;" xml:space="preserve">
<style type="text/css">
	.st0{fill:url(#SVGID_1_);}
</style>
<g>
	<linearGradient id="SVGID_1_" gradientUnits="userSpaceOnUse" x1="0.3038" y1="15.9996" x2="31.5758" y2="15.9996">
		<stop  offset="0" style="stop-color:#FFEA83"/>
		<stop  offset="8.333001e-02" style="stop-color:#FFDD35"/>
		<stop  offset="1" style="stop-color:#FFA800"/>
	</linearGradient>
	<path class="st0" d="M22.5,28.1c-2.7,0-4.9-2.2-4.9-4.9c0-0.6,0.1-1.2,0.3-1.8c0.5-1.2,0.3-2.6-0.6-3.6c-0.7-0.8-1.7-1.3-2.8-1.3
		c-0.2,0-0.5,0-0.7,0.1c-0.1,0-0.3,0.1-0.4,0.1c-1.8,0.2-3.2,1.6-3.2,3.4c-0.1,2.6-2.3,4.7-4.9,4.7c-2.7,0-4.9-2.2-4.9-4.9
		c0-2.5,2-4.7,4.5-4.9c1.8-0.2,3.2-1.6,3.2-3.4c0.1-2.6,2.3-4.7,4.9-4.7c1.3,0,2.5,0.5,3.4,1.4c0.7,0.6,1.6,1,2.5,1
		c0.2,0,0.5,0,0.7-0.1c1.1-0.2,2.1-1,2.6-2.1c0.8-1.8,2.6-2.9,4.5-2.9c2.7,0,4.9,2.2,4.9,4.9c0,2.3-1.6,4.3-3.8,4.8
		c-1.3,0.3-2.2,1.3-2.6,2.5c-0.4,1.2,0,2.6,0.9,3.5c0.9,0.9,1.4,2.2,1.4,3.4C27.4,25.8,25.2,28.1,22.5,28.1z"/>
</g>
</svg>
